PathFileType	4	(X/Y/Z)	E:\3-PhD\Data\MocapData\ElaboratedData\012\pre\dynamicElaborations\Run_baselineB1\Run_baselineB1.trc
DataRate	CameraRate	NumFrames	NumMarkers	Units	OrigDataRate	OrigDataStartFrame	OrigNumFrames
200	200	4	56	mm	200	707	93
Frame#	Time	FHD			LBHD			RBHD			C7			T10			CLAV			LSHO			LUUPA			LMUPA			LDUPA			LLEP			LMEP			LRAD			LUL			LRFIN			RSHO			RUPA1			RMUPA			RDUPA			RLEP			RMEP			RRAD			RUL			RUFIN			LASI			RASI			USACR			LSACR			RSACR			LTHI1			LTHI2			LTHI3			LTHI4			LLFC			LTIB1			LTIB2			LTIB3			LTIB4			LHEE			LMT1			LMT5			LMT2			RTHI			RTHI2			RTHI3			RTHI4			RLFC			RTIB1			RTIB2			RTIB3			RTIB4			RLMAL			RHEE			RMT1			RMT2			RMT5		
		X1	Y1	Z1	X2	Y2	Z2	X3	Y3	Z3	X4	Y4	Z4	X5	Y5	Z5	X6	Y6	Z6	X7	Y7	Z7	X8	Y8	Z8	X9	Y9	Z9	X10	Y10	Z10	X11	Y11	Z11	X12	Y12	Z12	X13	Y13	Z13	X14	Y14	Z14	X15	Y15	Z15	X16	Y16	Z16	X17	Y17	Z17	X18	Y18	Z18	X19	Y19	Z19	X20	Y20	Z20	X21	Y21	Z21	X22	Y22	Z22	X23	Y23	Z23	X24	Y24	Z24	X25	Y25	Z25	X26	Y26	Z26	X27	Y27	Z27	X28	Y28	Z28	X29	Y29	Z29	X30	Y30	Z30	X31	Y31	Z31	X32	Y32	Z32	X33	Y33	Z33	X34	Y34	Z34	X35	Y35	Z35	X36	Y36	Z36	X37	Y37	Z37	X38	Y38	Z38	X39	Y39	Z39	X40	Y40	Z40	X41	Y41	Z41	X42	Y42	Z42	X43	Y43	Z43	X44	Y44	Z44	X45	Y45	Z45	X46	Y46	Z46	X47	Y47	Z47	X48	Y48	Z48	X49	Y49	Z49	X50	Y50	Z50	X51	Y51	Z51	X52	Y52	Z52	X53	Y53	Z53	X54	Y54	Z54	X55	Y55	Z55	X56	Y56	Z56	
707	3.530000	-1054.657453	1767.786063	340.907898	-1202.818607	1732.275742	233.602737	-1195.075137	1725.927081	385.638942	-1238.024093	1568.348306	332.556994	-1382.554598	1255.646955	366.929654	-1114.381931	1455.514117	305.372346	-1155.469449	1559.823208	159.908212	-1226.124274	1361.759457	43.663520	-1189.266102	1330.029535	52.584489	-1235.123549	1293.526960	34.685796	-1230.218526	1203.979675	23.235929	-1272.653472	1191.600566	98.197129	-1032.560195	1055.462230	147.035092	-1049.782760	1009.545318	86.708836	-957.131248	1013.895416	149.355038	-1116.757542	1502.490982	483.192732	-1277.570007	1345.225552	595.869007	-1251.076171	1302.911831	594.309005	-1304.941568	1282.685173	607.336617	-1337.790113	1219.908011	620.489579	-1367.242860	1205.792136	541.916040	-1211.229621	967.024884	573.194112	-1251.200964	942.067268	636.169730	-1170.396096	890.244088	583.958139	-1316.590600	1027.182277	206.947910	-1282.752469	993.781412	438.144415	-1443.633551	1123.877254	370.244175	-1467.738830	1099.049265	345.536481	-1455.402648	1094.315086	400.094168	-1374.761875	769.538841	138.211181	-1312.735649	709.259770	133.025339	-1268.164913	723.522942	138.387281	-1322.287922	651.041241	140.325869	-1280.583427	497.367917	149.704583	-1310.128428	318.355417	225.039620	-1353.703003	286.606058	158.312168	-1327.174841	271.817848	193.529274	-1367.075226	206.386325	229.416649	-1529.470384	56.896324	255.587324	-1317.205929	52.269970	264.643684	-1348.822454	37.290744	164.564441	-1308.749117	51.055421	209.777039	-1376.441627	680.625604	497.871804	-1334.219159	626.655290	492.819820	-1301.608091	627.499650	483.417243	-1361.838394	548.822611	476.838279	-1383.022321	457.688191	447.247808	-1490.220747	415.698703	389.774916	-1563.986878	490.845522	421.155487	-1569.632101	451.393228	403.689979	-1614.060901	447.581627	367.640410	-1770.665437	540.604501	350.182977	-1796.327632	593.081474	292.239938	-1833.298591	370.172332	282.660518	-1833.045113	372.044534	327.312624	-1855.898910	417.639334	373.091727	
708	3.535000	-1025.436185	1766.512372	339.388694	-1173.075948	1730.949122	231.457807	-1166.122999	1724.481375	383.467948	-1208.653234	1565.969383	329.543407	-1350.897639	1251.682749	365.737688	-1083.447344	1453.703763	304.561183	-1124.359107	1558.306963	158.504555	-1186.829084	1356.587036	44.798818	-1148.759460	1326.312531	54.760887	-1192.936016	1287.807978	36.699109	-1183.556482	1198.089537	27.636988	-1227.912648	1185.229463	101.620829	-982.431848	1066.572550	163.371140	-994.763796	1017.373395	104.529687	-904.545841	1029.767617	169.449033	-1089.786758	1502.282900	483.366600	-1257.628774	1351.537270	594.838673	-1232.236349	1308.626223	595.995752	-1286.997288	1290.280129	607.851675	-1322.202790	1229.064683	621.981162	-1349.342493	1213.011072	543.320642	-1202.814026	970.887636	588.701947	-1245.870158	949.370684	650.767833	-1165.226438	893.283121	603.076502	-1287.230288	1023.437792	204.413491	-1250.382627	990.647809	434.630834	-1411.535000	1122.538824	369.560896	-1435.914204	1097.987197	344.889141	-1423.229648	1092.948238	399.368567	-1352.518479	766.674432	137.191668	-1292.681242	704.548038	131.124293	-1247.588964	717.117186	136.265084	-1304.135100	646.394291	138.807852	-1267.765113	490.703131	147.969299	-1302.915841	312.795963	224.305158	-1348.163327	282.295048	158.099452	-1321.940221	266.833060	193.154967	-1363.969842	202.923938	229.557298	-1530.137349	57.083954	256.938702	-1317.778687	52.288791	265.039755	-1349.697667	37.673361	165.024648	-1309.519586	51.062463	210.144211	-1331.731907	679.640450	497.538166	-1287.191541	627.651491	492.163878	-1254.800366	629.683742	482.155330	-1311.371737	548.495335	476.349781	-1327.987607	457.406399	446.439505	-1434.771066	414.565183	389.888840	-1508.910966	488.620313	422.677915	-1514.492220	449.019640	405.021820	-1559.299112	444.999375	369.349936	-1717.017464	535.271257	353.886314	-1745.690197	587.661281	296.805919	-1776.288216	364.051957	286.571967	-1774.756907	365.576688	331.351018	-1797.871516	410.198942	377.972368	
709	3.540000	-996.273147	1765.352196	338.120078	-1143.372930	1729.605328	229.578189	-1137.190222	1723.012593	381.560005	-1179.162136	1563.685366	326.681060	-1319.175183	1247.804599	364.503362	-1052.390359	1452.098788	304.026281	-1092.854322	1557.133868	157.542611	-1147.207117	1352.377440	45.963529	-1108.125505	1323.516226	56.977460	-1150.671317	1283.184813	38.829020	-1136.878829	1193.502730	32.263077	-1183.204457	1180.163580	105.224022	-933.590728	1079.550980	179.304069	-940.980946	1027.425308	122.240977	-853.634049	1047.758791	188.965324	-1062.840953	1502.353001	483.676225	-1237.623896	1358.453684	593.378708	-1213.430467	1315.139069	597.473368	-1268.983111	1298.646493	608.024143	-1306.424311	1239.004062	623.122450	-1331.385994	1220.801199	544.560737	-1194.010990	976.754147	603.804759	-1240.235319	958.460989	664.405103	-1159.625548	898.714168	621.855166	-1257.779416	1019.454087	201.930740	-1218.166377	987.486265	431.069396	-1379.443470	1121.396774	368.744056	-1404.050868	1097.103222	344.076829	-1391.083981	1091.774895	398.502029	-1330.451579	764.142004	136.352281	-1272.971355	700.234107	129.363407	-1227.421736	711.101351	134.259622	-1286.334897	642.210037	137.484062	-1255.379420	484.869531	146.398995	-1295.903953	307.988453	223.531102	-1342.840143	278.856949	157.856316	-1316.869137	262.715705	192.647582	-1360.796627	200.279490	229.512578	-1530.633970	58.252796	258.231059	-1318.234870	52.462342	265.439195	-1350.462603	38.160897	165.563453	-1310.135857	51.182471	210.511051	-1286.681466	679.615555	497.080719	-1239.862285	629.811375	491.207963	-1207.804293	633.071675	480.499818	-1260.451541	549.461989	475.623606	-1272.469093	458.462301	445.258463	-1378.780622	414.035040	389.735565	-1453.630844	486.507180	424.069453	-1458.945652	446.707824	406.176696	-1504.116618	442.184214	370.914778	-1663.460400	528.685054	357.700774	-1695.428729	580.696121	301.572869	-1718.270695	356.440830	290.527537	-1715.467964	357.696906	335.354965	-1739.112136	401.210120	382.836206	
710	3.545000	-967.137519	1764.349182	337.113230	-1113.697945	1728.282398	227.991781	-1108.234877	1721.567032	379.942531	-1149.528233	1561.579942	323.999628	-1287.363732	1244.133382	363.202275	-1021.233351	1450.770518	303.781517	-1060.921355	1556.340086	157.039333	-1107.283937	1349.152969	47.142162	-1067.403473	1321.635028	59.232467	-1108.396044	1279.661411	41.060248	-1090.336327	1190.208513	37.067202	-1138.622874	1176.396939	108.988327	-886.196840	1094.149121	194.675174	-888.673849	1039.461731	139.663409	-804.565836	1067.560928	207.680616	-1035.867947	1502.700552	484.066061	-1217.367994	1365.924824	591.429701	-1194.471761	1322.408999	598.625942	-1250.712099	1307.732003	607.743147	-1290.292163	1249.677147	623.831620	-1313.175977	1229.156493	545.560114	-1184.708083	984.440843	618.356717	-1234.153779	969.157377	676.977417	-1153.498957	906.309913	640.153537	-1228.121699	1015.323592	199.507631	-1186.079670	984.391770	427.558837	-1347.364465	1120.402857	367.803810	-1372.131662	1096.318235	343.140367	-1358.966257	1090.751189	397.543723	-1308.485081	761.892078	135.695928	-1253.546392	696.228115	127.775901	-1207.606988	705.375643	132.369608	-1268.858980	638.441635	136.353786	-1243.390377	479.785457	144.963880	-1289.088273	303.924247	222.694216	-1337.667401	276.238686	157.537517	-1311.911728	259.422156	191.996435	-1357.552586	198.422588	229.293291	-1530.926894	60.345215	259.360874	-1318.558289	52.693664	265.800201	-1351.088815	38.654828	166.114301	-1310.579000	51.301353	210.841558	-1241.408182	680.636561	496.458212	-1192.363376	633.220182	489.930110	-1160.748053	637.756195	478.455847	-1209.202588	551.843805	474.645547	-1216.647281	460.941100	443.691552	-1322.369381	414.180547	389.252699	-1398.259334	484.543425	425.242125	-1403.083116	444.528352	407.054249	-1448.586527	439.195189	372.240623	-1610.003578	520.904909	361.525483	-1645.506301	572.158099	306.405396	-1659.219223	347.423706	294.516053	-1655.164616	348.540096	339.308638	-1679.596386	390.832559	387.633050	
